# xmcd
#
# Track frame offsets:
#	150
#	17994
#	39302
#	63007
#	89760
#	113971
#	137583
#	164396
#	176734
#	204916
#
# Disc length: 3036 seconds
#
# Revision: 1
# Processed by: cddbd v1.5.2PL0 Copyright (c) Steve Scherf et al.
# Submitted via: EZCDAudioConverter 8.0.2.1
#
DISCID=830bda0a
DTITLE=Trường Vũ - Chuyên chúng mình
DYEAR=2000
DGENRE=country
TTITLE0=Xa mối tình đầu (Đoạn tái bút 2)
TTITLE1=Lệ tình
TTITLE2=Chuyên chúng mình
TTITLE3=Gặp nhau trong mưa
TTITLE4=Đời Lan và Điệp (Lan và Điệp 4)
TTITLE5=Khúc hát ân tình
TTITLE6=Cánh thư bằng hữu
TTITLE7=Ai xuôi vạn lý (Hòn Vọng Phu 1)
TTITLE8=Vọng phu (Hòn Vọng Phu 2)
TTITLE9=Chinh phụ về (Hòn Vọng Phu 3)
EXTD=
EXTT0=
EXTT1=
EXTT2=
EXTT3=
EXTT4=
EXTT5=
EXTT6=
EXTT7=
EXTT8=
EXTT9=
PLAYORDER=
